<svg width="30" height="30" viewBox="0 0 30 30" fill="none" xmlns="http://www.w3.org/2000/svg">
<circle cx="15" cy="15" r="15" fill="white"/>
<path d="M10.5006 12.0001C10.5008 12.0001 10.5003 12.0001 10.5006 12.0001H6.49998C6.22398 11.9999 6.00017 12.2236 5.99998 12.4995C5.99998 12.4993 5.99998 12.4998 5.99998 12.4995V24.5001C5.9998 24.7761 6.22343 24.9999 6.49937 25.0001C6.49919 25.0001 6.49962 25.0001 6.49937 25.0001H10.5C10.776 25.0003 10.9998 24.7767 11 24.5007C11 24.5009 11 24.5005 11 24.5007V12.5001C11.0002 12.2241 10.7765 12.0003 10.5006 12.0001ZM9.99998 24.0001H6.99998V13.0001H9.99998V24.0001ZM21 12.0001C19.9151 12.0002 18.8606 12.3582 18 13.0187V12.5001C18.0002 12.2241 17.7765 12.0003 17.5006 12.0001C17.5008 12.0001 17.5003 12.0001 17.5006 12.0001H13.5C13.224 11.9999 13.0002 12.2236 13 12.4995C13 12.4993 13 12.4998 13 12.4995V24.5001C12.9998 24.7761 13.2234 24.9999 13.4994 25.0001C13.4992 25.0001 13.4996 25.0001 13.4994 25.0001H17.5C17.776 25.0003 17.9998 24.7767 18 24.5007C18 24.5009 18 24.5005 18 24.5007V19.0001C18 18.1717 18.6716 17.5001 19.5 17.5001C20.3284 17.5001 21 18.1717 21 19.0001V24.5001C20.9998 24.7761 21.2234 24.9999 21.4994 25.0001C21.4992 25.0001 21.4996 25.0001 21.4994 25.0001H25.5C25.776 25.0003 25.9998 24.7767 26 24.5007C26 24.5009 26 24.5005 26 24.5007V17.0001C25.9967 14.2401 23.7601 12.0034 21 12.0001ZM25 24.0001H22V19.0001C22 17.6194 20.8807 16.5001 19.5 16.5001C18.1192 16.5001 17 17.6194 17 19.0001V24.0001H14V13.0001H17V14.2033C17 14.4157 17.1344 14.6049 17.335 14.6749C17.5351 14.7471 17.759 14.6829 17.8907 14.5158C19.2532 12.7889 21.7576 12.4937 23.4844 13.8563C24.4463 14.6154 25.0053 15.7748 25 17.0001V24.0001ZM8.86796 5.00196C8.75035 4.99372 8.63231 4.99311 8.51463 5.00013C7.00535 4.89704 5.69829 6.03699 5.5952 7.54627C5.59105 7.607 5.58897 7.66779 5.58885 7.72864C5.57585 9.2251 6.77842 10.4487 8.27488 10.4617C8.33598 10.4623 8.39702 10.4607 8.45799 10.4571H8.48631C9.99272 10.5625 11.2993 9.42676 11.4047 7.92036C11.5101 6.41395 10.3744 5.10737 8.86796 5.00196ZM8.83342 9.45997C8.71794 9.47059 8.60161 9.46967 8.48631 9.4571H8.45799C7.50187 9.53058 6.66728 8.81513 6.59379 7.85901C6.52031 6.90296 7.23576 6.0683 8.19188 5.99482C8.29942 5.98658 8.40745 5.98835 8.51463 6.00013C9.47001 5.91212 10.3159 6.61524 10.404 7.57062C10.492 8.52607 9.78886 9.37195 8.83342 9.45997Z" fill="black"/>
</svg>
