<svg width="30" height="30" viewBox="0 0 30 30" fill="none" xmlns="http://www.w3.org/2000/svg">
<circle cx="15" cy="15" r="15" fill="white"/>
<path d="M23.6422 9.25417C23.1859 9.25058 22.0141 9.14288 21.0176 8.24538C19.8349 7.17914 19.7436 5.77185 19.7436 5.36618C19.7436 5.16873 19.583 5.01077 19.3859 5.00718L15.6224 5C15.4216 5 15.2573 5.16155 15.2573 5.359V18.4877C15.2537 19.8519 14.1221 20.9612 12.7386 20.9612C11.3514 20.9612 10.2198 19.8483 10.2198 18.4841C10.2198 17.1199 11.3514 16.007 12.7386 16.007C12.9831 16.007 13.235 16.0429 13.4832 16.1147C13.5928 16.147 13.7132 16.1255 13.8045 16.0573C13.8957 15.9891 13.9505 15.8814 13.9505 15.7701V12.4026C13.9505 12.2231 13.8191 12.0723 13.6402 12.0472C13.2971 11.9969 12.9576 11.9718 12.6254 11.9718C8.9714 11.9718 6 14.8941 6 18.4877C6 22.0777 8.9714 25 12.6254 25C16.2794 25 19.2508 22.0777 19.2508 18.4877V12.2052C20.2328 13.1278 21.5505 13.6591 22.934 13.6591C23.2005 13.6591 23.456 13.6412 23.6933 13.6017C23.8722 13.573 23.9999 13.4222 23.9999 13.2463V9.61318C24.0036 9.41572 23.843 9.25417 23.6422 9.25417ZM23.2735 12.9268C23.164 12.9339 23.0508 12.9375 22.9377 12.9375C21.4483 12.9375 20.0466 12.2267 19.1888 11.0312C19.0975 10.902 18.9332 10.8481 18.7799 10.8948C18.6266 10.9415 18.5244 11.0815 18.5244 11.2359V18.4805C18.5244 21.6756 15.8779 24.2748 12.6291 24.2748C9.37659 24.2748 6.73372 21.6756 6.73372 18.4805C6.73372 15.2818 9.38024 12.6826 12.6291 12.6826C12.8225 12.6826 13.0233 12.6934 13.2241 12.7114V15.3141C13.0635 15.289 12.8992 15.2782 12.7386 15.2782C10.9462 15.2782 9.48975 16.7106 9.48975 18.4733C9.48975 20.236 10.9462 21.6685 12.7386 21.6685C14.5236 21.6685 15.9801 20.2396 15.9874 18.4769V5.718H18.8821L19.0318 5.72159C19.0939 6.42165 19.3676 7.7356 20.5248 8.7767C21.4958 9.65267 22.6092 9.8932 23.2735 9.95423V12.9268Z" fill="black"/>
</svg>
